<svg xmlns="http://www.w3.org/2000/svg" xmlns:xlink="http://www.w3.org/1999/xlink" width="256" height="256" viewBox="0 0 256 256">
  <defs>
    <clipPath id="clip-Activities_Empty">
      <rect width="256" height="256"/>
    </clipPath>
  </defs>
  <g id="Activities_Empty" clip-path="url(#clip-Activities_Empty)">
    <path id="Icon_metro-files-empty" data-name="Icon metro-files-empty" d="M199.645,91.2a222,222,0,0,0-19.926-24.926,214.134,214.134,0,0,0-22.788-21.794c-11.788-9.455-17.506-10.549-20.782-10.549H52.039c-10.083,0-18.285,8.972-18.285,20v184c0,11.028,8.2,20,18.285,20H191c10.082,0,18.285-8.972,18.285-20v-124c0-3.583-1-9.837-9.644-22.731ZM169.376,77.585a213.23,213.23,0,0,1,16.589,20.343H150.777V59.442a206.437,206.437,0,0,1,18.6,18.143Zm25.285,160.343a3.892,3.892,0,0,1-3.657,4H52.039a3.892,3.892,0,0,1-3.657-4v-184a3.892,3.892,0,0,1,3.657-4h84.11v56c0,4.418,3.274,8,7.314,8h51.2ZM127.675,12.477C115.888,3.022,110.169,1.928,106.894,1.928H22.784C12.7,1.928,4.5,10.9,4.5,21.928v184c0,9.658,6.292,17.74,14.628,19.6V21.928a3.892,3.892,0,0,1,3.657-4H134.064c-2.2-1.98-4.349-3.815-6.389-5.451Z" transform="translate(21.106 -1.928)" fill="#4e6b73" stroke="#4e6b73" stroke-width="1"/>
  </g>
</svg>
