<svg xmlns="http://www.w3.org/2000/svg" xmlns:xlink="http://www.w3.org/1999/xlink" width="256" height="256" viewBox="0 0 256 256">
  <defs>
    <clipPath id="clip-Add_new_CV_Empty">
      <rect width="256" height="256"/>
    </clipPath>
  </defs>
  <g id="Add_new_CV_Empty" data-name="Add new CV_Empty" clip-path="url(#clip-Add_new_CV_Empty)">
    <path id="Icon_awesome-user-plus" data-name="Icon awesome-user-plus" d="M236.983,78.994H212.677V54.688a6.094,6.094,0,0,0-6.077-6.076H194.448a6.094,6.094,0,0,0-6.077,6.076V78.994H164.065a6.094,6.094,0,0,0-6.076,6.076V97.224a6.094,6.094,0,0,0,6.076,6.076h24.306v24.306a6.094,6.094,0,0,0,6.077,6.076H206.6a6.094,6.094,0,0,0,6.077-6.076V103.3h24.306a6.094,6.094,0,0,0,6.076-6.076V85.071A6.094,6.094,0,0,0,236.983,78.994ZM85.071,97.224A48.612,48.612,0,1,0,36.459,48.612,48.608,48.608,0,0,0,85.071,97.224ZM119.1,109.377h-6.342a66.111,66.111,0,0,1-55.372,0H51.043A51.056,51.056,0,0,0,0,160.419v15.8a18.234,18.234,0,0,0,18.229,18.229H151.912a18.234,18.234,0,0,0,18.229-18.229v-15.8A51.056,51.056,0,0,0,119.1,109.377Z" transform="translate(6.47 30.776)" fill="none" stroke="#10a1a7" stroke-width="10"/>
  </g>
</svg>
