<svg xmlns="http://www.w3.org/2000/svg" xmlns:xlink="http://www.w3.org/1999/xlink" width="256" height="256" viewBox="0 0 256 256">
  <defs>
    <clipPath id="clip-Availabilities_Full_green">
      <rect width="256" height="256"/>
    </clipPath>
  </defs>
  <g id="Availabilities_Full_green" data-name="Availabilities_Full green" clip-path="url(#clip-Availabilities_Full_green)">
    <path id="Icon_awesome-calendar-alt" data-name="Icon awesome-calendar-alt" d="M0,223.222a23.1,23.1,0,0,0,23.092,23.092H192.433a23.1,23.1,0,0,0,23.092-23.092V92.368H0ZM153.946,128.93a5.79,5.79,0,0,1,5.773-5.773h19.243a5.79,5.79,0,0,1,5.773,5.773v19.243a5.79,5.79,0,0,1-5.773,5.773H159.719a5.79,5.79,0,0,1-5.773-5.773Zm0,61.579a5.79,5.79,0,0,1,5.773-5.773h19.243a5.79,5.79,0,0,1,5.773,5.773v19.243a5.79,5.79,0,0,1-5.773,5.773H159.719a5.79,5.79,0,0,1-5.773-5.773ZM92.368,128.93a5.79,5.79,0,0,1,5.773-5.773h19.243a5.79,5.79,0,0,1,5.773,5.773v19.243a5.79,5.79,0,0,1-5.773,5.773H98.141a5.79,5.79,0,0,1-5.773-5.773Zm0,61.579a5.79,5.79,0,0,1,5.773-5.773h19.243a5.79,5.79,0,0,1,5.773,5.773v19.243a5.79,5.79,0,0,1-5.773,5.773H98.141a5.79,5.79,0,0,1-5.773-5.773ZM30.789,128.93a5.79,5.79,0,0,1,5.773-5.773H55.806a5.79,5.79,0,0,1,5.773,5.773v19.243a5.79,5.79,0,0,1-5.773,5.773H36.562a5.79,5.79,0,0,1-5.773-5.773Zm0,61.579a5.79,5.79,0,0,1,5.773-5.773H55.806a5.79,5.79,0,0,1,5.773,5.773v19.243a5.79,5.79,0,0,1-5.773,5.773H36.562a5.79,5.79,0,0,1-5.773-5.773ZM192.433,30.789H169.341V7.7a7.72,7.72,0,0,0-7.7-7.7H146.249a7.72,7.72,0,0,0-7.7,7.7V30.789H76.973V7.7a7.72,7.72,0,0,0-7.7-7.7H53.881a7.72,7.72,0,0,0-7.7,7.7V30.789H23.092A23.1,23.1,0,0,0,0,53.881V76.973H215.525V53.881A23.1,23.1,0,0,0,192.433,30.789Z" transform="translate(20.238 4.843)" fill="#7fbe7a"/>
  </g>
</svg>
