<svg xmlns="http://www.w3.org/2000/svg" xmlns:xlink="http://www.w3.org/1999/xlink" width="256" height="256" viewBox="0 0 256 256">
  <defs>
    <clipPath id="clip-Clients_Filled">
      <rect width="256" height="256"/>
    </clipPath>
  </defs>
  <g id="Clients_Filled" clip-path="url(#clip-Clients_Filled)">
    <path id="Icon_metro-target" data-name="Icon metro-target" d="M250.62,110.45H226.173A101.013,101.013,0,0,0,142.1,26.375V1.928H111.093V26.375A101.012,101.012,0,0,0,27.018,110.45H2.571v31.006H27.018a101.012,101.012,0,0,0,84.074,84.074v24.447H142.1V225.53a101.013,101.013,0,0,0,84.074-84.074h24.447V110.45Zm-56,0H170.455A46.634,46.634,0,0,0,142.1,82.094V57.928A69.994,69.994,0,0,1,194.621,110.45ZM126.6,141.456a15.5,15.5,0,1,1,15.5-15.5A15.5,15.5,0,0,1,126.6,141.456Zm-15.5-83.528V82.094A46.633,46.633,0,0,0,82.736,110.45H58.57A69.994,69.994,0,0,1,111.092,57.928ZM58.57,141.456H82.736a46.633,46.633,0,0,0,28.356,28.356v24.166A69.993,69.993,0,0,1,58.57,141.456ZM142.1,193.978V169.812a46.634,46.634,0,0,0,28.356-28.356h24.166A69.993,69.993,0,0,1,142.1,193.978Z" transform="translate(1.404 2.047)" fill="#1f2124" stroke="#1f2124" stroke-width="5"/>
  </g>
</svg>
