<svg xmlns="http://www.w3.org/2000/svg" xmlns:xlink="http://www.w3.org/1999/xlink" width="256" height="256" viewBox="0 0 256 256">
  <defs>
    <clipPath id="clip-Clients_Empty">
      <rect width="256" height="256"/>
    </clipPath>
  </defs>
  <g id="Clients_Empty" clip-path="url(#clip-Clients_Empty)">
    <path id="Icon_metro-target" data-name="Icon metro-target" d="M249.47,109.946H225.136a100.544,100.544,0,0,0-83.684-83.684V1.928H110.589V26.262A100.544,100.544,0,0,0,26.9,109.946H2.571v30.862H26.9a100.544,100.544,0,0,0,83.684,83.684v24.334h30.862V224.493a100.544,100.544,0,0,0,83.685-83.684H249.47V109.946Zm-55.74,0H169.676a46.418,46.418,0,0,0-28.225-28.225V57.668A69.669,69.669,0,0,1,193.73,109.946Zm-67.71,30.862a15.431,15.431,0,1,1,15.431-15.431A15.431,15.431,0,0,1,126.02,140.809ZM110.589,57.668V81.722a46.417,46.417,0,0,0-28.225,28.225H58.311A69.67,69.67,0,0,1,110.589,57.668ZM58.311,140.809H82.365a46.417,46.417,0,0,0,28.225,28.225v24.054A69.669,69.669,0,0,1,58.311,140.809Zm83.141,52.279V169.034a46.418,46.418,0,0,0,28.225-28.225H193.73A69.668,69.668,0,0,1,141.452,193.087Z" transform="translate(1.979 2.622)" fill="none" stroke="#4e6b73" stroke-width="10"/>
  </g>
</svg>
