<svg xmlns="http://www.w3.org/2000/svg" xmlns:xlink="http://www.w3.org/1999/xlink" width="256" height="256" viewBox="0 0 256 256">
  <defs>
    <clipPath id="clip-Contacts_Candidate_parameters_Filled">
      <rect width="256" height="256"/>
    </clipPath>
  </defs>
  <g id="Contacts_Candidate_parameters_Filled" data-name="Contacts_Candidate parameters_Filled" clip-path="url(#clip-Contacts_Candidate_parameters_Filled)">
    <path id="Icon_material-contact-mail" data-name="Icon material-contact-mail" d="M224,57.833V47.167L192,68.5,160,47.167V57.833l32,21.333ZM234.667,4.5H21.333A21.4,21.4,0,0,0,0,25.833V175.167A21.4,21.4,0,0,0,21.333,196.5H234.667a21.3,21.3,0,0,0,21.227-21.333L256,25.833A21.4,21.4,0,0,0,234.667,4.5ZM85.333,36.5a32,32,0,1,1-32,32A31.957,31.957,0,0,1,85.333,36.5Zm64,128h-128V153.833c0-21.333,42.667-33.067,64-33.067s64,11.733,64,33.067Zm85.333-64H149.333v-64h85.333Z" transform="translate(0 27.5)" fill="#1f2124"/>
  </g>
</svg>
