<?xml version="1.0" standalone="no"?>
<!DOCTYPE svg PUBLIC "-//W3C//DTD SVG 20010904//EN"
 "http://www.w3.org/TR/2001/REC-SVG-20010904/DTD/svg10.dtd">
<svg version="1.0" xmlns="http://www.w3.org/2000/svg"
 width="48.000000pt" height="48.000000pt" viewBox="0 0 48.000000 48.000000"
 preserveAspectRatio="xMidYMid meet">
<metadata>
Created by potrace 1.10, written by Peter Selinger 2001-2011
</metadata>
<g transform="translate(0.000000,48.000000) scale(0.100000,-0.100000)"
fill="#000000" stroke="none">
<path d="M130 435 c0 -21 -5 -25 -30 -25 l-30 0 2 -187 3 -188 145 0 c142 0
145 1 148 22 2 15 11 23 30 25 l27 3 3 134 3 135 -53 53 -52 53 -98 0 c-98 0
-98 0 -98 -25z m180 -45 l0 -50 50 0 50 0 0 -110 0 -110 -130 0 -130 0 0 160
0 160 80 0 80 0 0 -50z m55 0 l29 -30 -32 0 c-29 0 -32 3 -32 30 0 17 1 30 3
30 2 0 16 -13 32 -30z m-233 -142 l3 -143 108 -3 c86 -2 107 -6 107 -17 0 -12
-22 -15 -130 -15 l-130 0 0 160 c0 153 1 160 20 160 18 0 20 -8 22 -142z"/>
</g>
</svg>
