<svg xmlns="http://www.w3.org/2000/svg" xmlns:xlink="http://www.w3.org/1999/xlink" width="256" height="256" viewBox="0 0 256 256">
  <defs>
    <clipPath id="clip-Copy_paste">
      <rect width="256" height="256"/>
    </clipPath>
  </defs>
  <g id="Copy_paste" data-name="Copy paste" clip-path="url(#clip-Copy_paste)">
    <path id="Icon_awesome-copy" data-name="Icon awesome-copy" d="M160,224v20a12,12,0,0,1-12,12H12A12,12,0,0,1,0,244V60A12,12,0,0,1,12,48H48V196a28.031,28.031,0,0,0,28,28Zm0-172V0H76A12,12,0,0,0,64,12V196a12,12,0,0,0,12,12H212a12,12,0,0,0,12-12V64H172A12.035,12.035,0,0,1,160,52Zm60.486-15.514L187.514,3.515A12,12,0,0,0,179.029,0H176V48h48V44.971a12,12,0,0,0-3.514-8.485Z" fill="#4e6b73"/>
  </g>
</svg>
