<svg xmlns="http://www.w3.org/2000/svg" xmlns:xlink="http://www.w3.org/1999/xlink" width="256" height="256" viewBox="0 0 256 256">
  <defs>
    <clipPath id="clip-Cross">
      <rect width="256" height="256"/>
    </clipPath>
  </defs>
  <g id="Cross" clip-path="url(#clip-Cross)">
    <path id="Icon_metro-cross" data-name="Icon metro-cross" d="M256.236,207.593l0,0-77.661-77.662,77.661-77.662,0,0a8.019,8.019,0,0,0,0-11.312L219.546,4.265a8.021,8.021,0,0,0-11.312,0l0,0L130.571,81.928,52.909,4.265l0,0a8.02,8.02,0,0,0-11.311,0L4.908,40.952a8.019,8.019,0,0,0,0,11.311l0,0,77.662,77.662L4.908,207.591l0,0a8.017,8.017,0,0,0,0,11.311L41.6,255.591a8.019,8.019,0,0,0,11.311,0l0,0,77.662-77.662,77.662,77.662,0,0a8.017,8.017,0,0,0,11.311,0L256.233,218.9a8.017,8.017,0,0,0,0-11.311Z" transform="translate(-2.571 -1.928)" fill="#ff898f"/>
  </g>
</svg>
