<svg xmlns="http://www.w3.org/2000/svg" xmlns:xlink="http://www.w3.org/1999/xlink" width="256" height="256" viewBox="0 0 256 256">
  <defs>
    <clipPath id="clip-Current_date_Activities">
      <rect width="256" height="256"/>
    </clipPath>
  </defs>
  <g id="Current_date_Activities" data-name="Current date_Activities" clip-path="url(#clip-Current_date_Activities)">
    <path id="Icon_material-update" data-name="Icon material-update" d="M260.494,105.766h-96.43l38.97-40.108c-38.828-38.4-101.693-39.824-140.521-1.422a97.782,97.782,0,0,0,0,139.241,99.838,99.838,0,0,0,140.521,0c19.343-19.059,29.014-41.388,29.014-69.549h28.446c0,28.161-12.516,64.714-37.548,89.461-49.922,49.5-130.992,49.5-180.914,0C-7.747,174.035-8.174,93.819,41.748,44.466a127.824,127.824,0,0,1,179.918,0L260.494,4.5ZM139.6,75.614v60.447l49.78,29.583-10.24,17.21-60.873-36.126V75.614Z" transform="translate(-4.502 -4.51)" fill="#4e6b73"/>
    <path id="Icon_material-update-2" data-name="Icon material-update" d="M260.494,105.766h-96.43l38.97-40.108c-38.828-38.4-101.693-39.824-140.521-1.422a97.782,97.782,0,0,0,0,139.241,99.838,99.838,0,0,0,140.521,0c19.343-19.059,29.014-41.388,29.014-69.549h28.446c0,28.161-12.516,64.714-37.548,89.461-49.922,49.5-130.992,49.5-180.914,0C-7.747,174.035-8.174,93.819,41.748,44.466a127.824,127.824,0,0,1,179.918,0L260.494,4.5ZM139.6,75.614v60.447l49.78,29.583-10.24,17.21-60.873-36.126V75.614Z" transform="translate(-4.502 -4.51)" fill="#4e6b73"/>
  </g>
</svg>
