<svg xmlns="http://www.w3.org/2000/svg" xmlns:xlink="http://www.w3.org/1999/xlink" width="256" height="256" viewBox="0 0 256 256">
  <defs>
    <clipPath id="clip-CVs_Empty">
      <rect width="256" height="256"/>
    </clipPath>
  </defs>
  <g id="CVs_Empty" clip-path="url(#clip-CVs_Empty)">
    <path id="Icon_awesome-users" data-name="Icon awesome-users" d="M36.636,74.364A24.041,24.041,0,1,0,12.212,50.326,24.256,24.256,0,0,0,36.636,74.364Zm170.968,0A24.041,24.041,0,1,0,183.18,50.326,24.256,24.256,0,0,0,207.6,74.364Zm12.212,12.019H195.392a24.551,24.551,0,0,0-17.211,6.986,54.95,54.95,0,0,1,28.66,41.09h25.187a12.1,12.1,0,0,0,12.212-12.019V110.42A24.256,24.256,0,0,0,219.816,86.383Zm-97.7,0c23.623,0,42.742-18.817,42.742-42.066S145.742,2.25,122.12,2.25,79.378,21.067,79.378,44.316,98.5,86.383,122.12,86.383ZM151.429,98.4h-3.167a59.862,59.862,0,0,1-52.283,0H92.811c-24.271,0-43.963,19.381-43.963,43.268v10.817a18.18,18.18,0,0,0,18.318,18.028H177.074a18.18,18.18,0,0,0,18.318-18.028V141.67C195.392,117.782,175.7,98.4,151.429,98.4ZM66.059,93.369a24.551,24.551,0,0,0-17.211-6.986H24.424A24.256,24.256,0,0,0,0,110.42v12.019a12.1,12.1,0,0,0,12.212,12.019H37.361A55.09,55.09,0,0,1,66.059,93.369Z" transform="translate(5.88 41.617)" fill="none" stroke="#4e6b73" stroke-width="8"/>
  </g>
</svg>
