<svg xmlns="http://www.w3.org/2000/svg" xmlns:xlink="http://www.w3.org/1999/xlink" width="256" height="256" viewBox="0 0 256 256">
  <defs>
    <clipPath id="clip-Email_sent_Filled">
      <rect width="256" height="256"/>
    </clipPath>
  </defs>
  <g id="Email_sent_Filled" data-name="Email sent_Filled" clip-path="url(#clip-Email_sent_Filled)">
    <path id="Icon_material-email" data-name="Icon material-email" d="M148.645,6H19.183a16.161,16.161,0,0,0-16.1,16.183L3,119.28a16.23,16.23,0,0,0,16.183,16.183H148.645a16.23,16.23,0,0,0,16.183-16.183v-97.1A16.23,16.23,0,0,0,148.645,6Zm16.183,16.183L83.914,75.228,3.081,22.183a15.427,15.427,0,0,1,.76-4.813A12.908,12.908,0,0,1,5.7,13.411L83.914,63.979l78.252-50.684,1.033,1.754.912,2.354.569,2.373Z" transform="translate(-3 57.269)" fill="#7fbe7a"/>
    <path id="Icon_awesome-arrow-right" data-name="Icon awesome-arrow-right" d="M31.7,7.514,35.39,3.82a3.977,3.977,0,0,1,5.64,0L73.375,36.148a3.977,3.977,0,0,1,0,5.64L41.03,74.134a3.977,3.977,0,0,1-5.64,0L31.7,70.44a4,4,0,0,1,.067-5.707l20.049-19.1H3.993A3.984,3.984,0,0,1,0,41.639V36.315a3.984,3.984,0,0,1,3.993-3.993H51.812l-20.049-19.1A3.969,3.969,0,0,1,31.7,7.514Z" transform="translate(181.452 89.023)" fill="#7fbe7a"/>
  </g>
</svg>
