<svg xmlns="http://www.w3.org/2000/svg" xmlns:xlink="http://www.w3.org/1999/xlink" width="256" height="256" viewBox="0 0 256 256">
  <defs>
    <clipPath id="clip-Incoming_call_Filled">
      <rect width="256" height="256"/>
    </clipPath>
  </defs>
  <g id="Incoming_call_Filled" data-name="Incoming call_Filled" clip-path="url(#clip-Incoming_call_Filled)">
    <path id="Icon_awesome-arrow-right" data-name="Icon awesome-arrow-right" d="M31.7,7.514,35.39,3.82a3.977,3.977,0,0,1,5.64,0L73.375,36.148a3.977,3.977,0,0,1,0,5.64L41.03,74.134a3.977,3.977,0,0,1-5.64,0L31.7,70.44a4,4,0,0,1,.067-5.707l20.049-19.1H3.993A3.984,3.984,0,0,1,0,41.639V36.315a3.984,3.984,0,0,1,3.993-3.993H51.812l-20.049-19.1A3.969,3.969,0,0,1,31.7,7.514Z" transform="translate(0 89.023)" fill="#7fbe7a"/>
    <path id="Tracé_328" data-name="Tracé 328" d="M178.562,134.582V161.04a17.638,17.638,0,0,1-19.225,17.638A174.527,174.527,0,0,1,83.228,151.6,171.972,171.972,0,0,1,30.314,98.688,174.532,174.532,0,0,1,3.239,22.226,17.638,17.638,0,0,1,20.789,3H47.246A17.638,17.638,0,0,1,64.884,18.17a113.238,113.238,0,0,0,6.173,24.782A17.638,17.638,0,0,1,67.089,61.56l-11.2,11.2A141.106,141.106,0,0,0,108.8,125.675l11.2-11.2a17.638,17.638,0,0,1,18.608-3.969,113.232,113.232,0,0,0,24.781,6.173A17.638,17.638,0,0,1,178.562,134.582Z" transform="translate(71.38 37.125)" fill="#7fbe7a" stroke="#7fbe7a" stroke-linecap="round" stroke-linejoin="round" stroke-width="5"/>
  </g>
</svg>
