<svg xmlns="http://www.w3.org/2000/svg" xmlns:xlink="http://www.w3.org/1999/xlink" width="256" height="256" viewBox="0 0 256 256">
  <defs>
    <clipPath id="clip-Industries_Empty">
      <rect width="256" height="256"/>
    </clipPath>
  </defs>
  <g id="Industries_Empty" clip-path="url(#clip-Industries_Empty)">
    <path id="Icon_awesome-industry" data-name="Icon awesome-industry" d="M230.3,66.128,162.869,109.04v-33.1a11.641,11.641,0,0,0-17.879-9.815L77.557,109.04V13.884A11.633,11.633,0,0,0,65.923,2.25H11.634A11.633,11.633,0,0,0,0,13.884V207.776a11.633,11.633,0,0,0,11.634,11.634H236.548a11.633,11.633,0,0,0,11.634-11.634V75.943A11.641,11.641,0,0,0,230.3,66.128Z" transform="translate(3.909 17.17)" fill="none" stroke="#4e6b73" stroke-width="10"/>
  </g>
</svg>
