<svg xmlns="http://www.w3.org/2000/svg" xmlns:xlink="http://www.w3.org/1999/xlink" width="256" height="256" viewBox="0 0 256 256">
  <defs>
    <clipPath id="clip-Information_Clients_Filled">
      <rect width="256" height="256"/>
    </clipPath>
  </defs>
  <g id="Information_Clients_Filled" clip-path="url(#clip-Information_Clients_Filled)">
    <path id="Icon_awesome-info-circle" data-name="Icon awesome-info-circle" d="M122.321.562A121.759,121.759,0,1,0,244.08,122.321,121.777,121.777,0,0,0,122.321.562Zm0,54.006a20.62,20.62,0,1,1-20.62,20.62A20.62,20.62,0,0,1,122.321,54.568Zm27.494,124.7a5.892,5.892,0,0,1-5.892,5.892h-43.2a5.892,5.892,0,0,1-5.892-5.892V167.49a5.892,5.892,0,0,1,5.892-5.892h5.892V130.176h-5.892a5.892,5.892,0,0,1-5.892-5.892V112.5a5.892,5.892,0,0,1,5.892-5.892H132.14a5.892,5.892,0,0,1,5.892,5.892v49.1h5.892a5.892,5.892,0,0,1,5.892,5.892Z" transform="translate(5.679 5.679)" fill="#1f2124"/>
  </g>
</svg>
