<svg xmlns="http://www.w3.org/2000/svg" xmlns:xlink="http://www.w3.org/1999/xlink" width="256" height="256" viewBox="0 0 256 256">
  <defs>
    <clipPath id="clip-Languages_Filled">
      <rect width="256" height="256"/>
    </clipPath>
  </defs>
  <g id="Languages_Filled" clip-path="url(#clip-Languages_Filled)">
    <path id="Icon_metro-language" data-name="Icon metro-language" d="M98.2,156.2q-.143.428-1.786-.072t-4.5-1.643L89.055,153.2a85.6,85.6,0,0,1-12.428-7q-1-.714-5.857-4.5t-5.429-4.071A243.375,243.375,0,0,1,46.2,163.489q-11.572,13.571-15,15.714a11.322,11.322,0,0,1-2.786.572,5.5,5.5,0,0,1-2.642,0q.857-.572,11.714-13.143,3-3.428,12.214-16.428t11.214-16.857q2.429-4.286,7.286-14.072T73.341,108.2q-1.142-.143-15.714,4.714-1.143.286-3.928,1.071t-4.928,1.357a24.482,24.482,0,0,0-2.429.714,2.429,2.429,0,0,0-.286,1.5,3.171,3.171,0,0,1-.142,1.357q-.715,1.428-4.429,2.143a11.519,11.519,0,0,1-6.714,0,6.026,6.026,0,0,1-4-3,7.267,7.267,0,0,1-.714-3.286,27.609,27.609,0,0,1,3.5-.714,42.661,42.661,0,0,0,4.214-.857q8.286-2.286,15-4.572,14.286-5,14.571-5a31.7,31.7,0,0,0,6.143-2.786,64.622,64.622,0,0,1,6.286-3.071q1.286-.428,3.071-1.143t2.071-.786a1.914,1.914,0,0,1,.858.072,16.256,16.256,0,0,1-.143,4.714,30.419,30.419,0,0,1-1.786,3.857q-1.786,3.572-3.786,7.643t-2.428,4.786a214.261,214.261,0,0,1-11,18.714l9.143,4q1.714.857,10.643,4.571t9.643,4q.572.143,1.5,3.643T98.2,156.2ZM68.912,86.775a5.794,5.794,0,0,1-.572,4Q66.627,94.061,61.2,96.2a22.933,22.933,0,0,1-8.572,1.714,11.824,11.824,0,0,1-7-3.714,10.744,10.744,0,0,1-2.571-5.857l.143-.429a6.113,6.113,0,0,0,2.786.714,12.423,12.423,0,0,0,3.786,0q1.429-.286,8.286-2.286a40.788,40.788,0,0,1,7.858-2,2.819,2.819,0,0,1,3,2.429ZM168.627,105.2l9,32.428-19.857-6ZM10.341,219.489l99.142-33.143V38.918L10.341,72.2V219.489ZM187.627,174.2l14.572,4.428L176.341,84.775l-14.286-4.428L131.2,156.918l14.571,4.428,6.428-15.714,30.143,9.286ZM115.77,36.775l81.857,26.286V8.775Zm44.428,189,22.572,1.857-7.714,22.857-5.714-9.429a105.9,105.9,0,0,1-39.428,15.428,68.466,68.466,0,0,1-13,1.714h-12q-11.286,0-28.5-5.572T50.2,240.489a2.977,2.977,0,0,1-1.143-2.286,2.763,2.763,0,0,1,.714-1.928,2.393,2.393,0,0,1,1.858-.786,8.043,8.043,0,0,1,2.571,1.072q2,1.071,4.357,2.357t2.928,1.572a126.574,126.574,0,0,0,22.786,8.786,83.24,83.24,0,0,0,22.5,3.5,121.908,121.908,0,0,0,23.857-2.072,117.738,117.738,0,0,0,22.428-7.214q2.143-1,4.358-2.214t4.857-2.714q2.642-1.5,4.071-2.357Zm64-154.143V225.775L113.627,190.632q-2,.857-53.571,18.214T7.484,226.2a2.584,2.584,0,0,1-2.571-1.857,1.1,1.1,0,0,0-.142-.428v-154a6.377,6.377,0,0,1,.571-1.429A6.427,6.427,0,0,1,8.2,66.918q15.142-5,21.285-7.143V4.918L109.2,33.2q.286,0,22.928-7.857t45.143-15.5Q199.769,2.2,200.341,2.2q2.857,0,2.858,3V64.918Z" transform="translate(13.627 -2.204)" fill="#1f2124"/>
  </g>
</svg>
