<svg xmlns="http://www.w3.org/2000/svg" xmlns:xlink="http://www.w3.org/1999/xlink" width="256" height="256" viewBox="0 0 256 256">
  <defs>
    <clipPath id="clip-LinkedIn">
      <rect width="256" height="256"/>
    </clipPath>
  </defs>
  <g id="LinkedIn" clip-path="url(#clip-LinkedIn)">
    <path id="Icon_awesome-linkedin-in" data-name="Icon awesome-linkedin-in" d="M31.753,141.852H2.343V47.145H31.753ZM17.032,34.226A17.113,17.113,0,1,1,34.064,17.033,17.176,17.176,0,0,1,17.032,34.226Zm124.79,107.625H112.476v-46.1c0-10.987-.222-25.078-15.29-25.078-15.29,0-17.634,11.937-17.634,24.286v46.894H50.175V47.145H78.381V60.064h.412C82.719,52.623,92.31,44.77,106.618,44.77c29.764,0,35.236,19.6,35.236,45.058v52.024Z" transform="translate(57.073 57.073)" fill="none" stroke="#006fb0" stroke-width="10"/>
    <g id="Rectangle_4948" data-name="Rectangle 4948" fill="none" stroke="#006fb0" stroke-width="10">
      <rect width="256" height="256" rx="50" stroke="none"/>
      <rect x="5" y="5" width="246" height="246" rx="45" fill="none"/>
    </g>
  </g>
</svg>
