<svg xmlns="http://www.w3.org/2000/svg" xmlns:xlink="http://www.w3.org/1999/xlink" width="256" height="256" viewBox="0 0 256 256">
  <defs>
    <clipPath id="clip-Mission_activities_Activities_page">
      <rect width="256" height="256"/>
    </clipPath>
  </defs>
  <g id="Mission_activities_Activities_page" data-name="Mission activities_Activities page" clip-path="url(#clip-Mission_activities_Activities_page)">
    <path id="Icon_awesome-file-signature" data-name="Icon awesome-file-signature" d="M96.964,188.506a4.925,4.925,0,0,0-4.52-2.9,4.847,4.847,0,0,0-4.453,2.751l-3.409,6.818a7.111,7.111,0,0,1-13.1-.929L64,171.817l-4.716,14.169A19.188,19.188,0,0,1,41.062,199.11H35.555a7.111,7.111,0,0,1,0-14.222h5.507a4.981,4.981,0,0,0,4.729-3.4L53.875,157.2a10.671,10.671,0,0,1,20.244,0l6.169,18.507c8.778-7.2,24.027-4.311,29.333,6.293a5.044,5.044,0,0,0,4.16,2.782v-36.5L170.67,91.8V71.111H110.222A10.7,10.7,0,0,1,99.555,60.444V0H10.667A10.641,10.641,0,0,0,0,10.667V216.888a10.641,10.641,0,0,0,10.667,10.667H160a10.641,10.641,0,0,0,10.667-10.667V199.11l-56.889-.049A19.083,19.083,0,0,1,96.964,188.506Zm73.7-134.328a10.633,10.633,0,0,0-3.111-7.511L124.044,3.111A10.659,10.659,0,0,0,116.488,0h-2.711V56.889h56.889ZM128,154.2v30.684h30.662l71.857-72.346L200.35,82.373,128,154.2ZM252.683,74.369,238.519,60.2a11.32,11.32,0,0,0-16,0L210.4,72.315l30.169,30.169,12.111-12.111A11.312,11.312,0,0,0,252.683,74.369Z" transform="translate(0 14.223)" fill="#4e6b73"/>
  </g>
</svg>
