<svg xmlns="http://www.w3.org/2000/svg" xmlns:xlink="http://www.w3.org/1999/xlink" width="256" height="256" viewBox="0 0 256 256">
  <defs>
    <clipPath id="clip-Nationalities_Filled">
      <rect width="256" height="256"/>
    </clipPath>
  </defs>
  <g id="Nationalities_Filled" clip-path="url(#clip-Nationalities_Filled)">
    <path id="Icon_awesome-flag-usa" data-name="Icon awesome-flag-usa" d="M15.973.011A15.956,15.956,0,0,0,0,15.984V247.6a8.01,8.01,0,0,0,7.987,7.987H23.96a8.01,8.01,0,0,0,7.987-7.987V15.984A15.956,15.956,0,0,0,15.973.011ZM149.7,151.557c-28.552-7.537-55.757-14.376-101.779,5.541v34.592c92.695-46.023,110.665,26.605,198.417-11.531a15.669,15.669,0,0,0,9.235-14.376v-17.97c-21.764,8.636-40.033,12.03-55.956,12.03C180.947,159.793,165.223,155.65,149.7,151.557Zm0-47.92C121.147,96.1,93.943,89.261,47.92,109.178v30.7c47.321-18.769,77.171-11.331,105.873-3.794,28.552,7.537,55.757,14.376,101.779-5.541v-30.7c-21.764,8.636-40.033,12.03-55.956,12.03-18.669,0-34.392-4.143-49.916-8.236Zm4.742-62.845c25.857,7.787,48.619,14.476,101.13-10.033V15.385c0-12.529-13.378-19.018-24.659-13.278C145.406,45.684,152.444-31.037,47.92,16.184V92.007C95.24,73.288,125.09,80.676,153.792,88.213c28.552,7.487,55.757,14.326,101.779-5.541V48.28C228.816,60.01,209,63.954,192.627,63.954s-29.451-3.893-42.778-7.937c-2-.6-4.043-1.2-6.04-1.747V37.7c3.594,1,7.138,2.047,10.632,3.095ZM79.866,63.954a7.987,7.987,0,1,1,7.987-7.987A7.978,7.978,0,0,1,79.866,63.954Zm0-27.853a7.987,7.987,0,1,1,7.987-7.987A7.978,7.978,0,0,1,79.866,36.1Zm31.946,23.91a7.987,7.987,0,1,1,7.987-7.987A7.978,7.978,0,0,1,111.813,60.01Zm0-27.9A7.987,7.987,0,1,1,119.8,24.12,7.978,7.978,0,0,1,111.813,32.107Z" transform="translate(0 0.002)" fill="#1f2124"/>
  </g>
</svg>
