<svg xmlns="http://www.w3.org/2000/svg" xmlns:xlink="http://www.w3.org/1999/xlink" width="256" height="256" viewBox="0 0 256 256">
  <defs>
    <clipPath id="clip-Nationalities_Empty">
      <rect width="256" height="256"/>
    </clipPath>
  </defs>
  <g id="Nationalities_Empty" clip-path="url(#clip-Nationalities_Empty)">
    <path id="Icon_awesome-flag-usa" data-name="Icon awesome-flag-usa" d="M15.318.01A15.3,15.3,0,0,0,0,15.328V237.435a7.681,7.681,0,0,0,7.659,7.659H22.977a7.681,7.681,0,0,0,7.659-7.659V15.328A15.3,15.3,0,0,0,15.318.01ZM143.556,145.337c-27.38-7.228-53.469-13.786-97.6,5.313v33.173c88.891-44.134,106.123,25.514,190.275-11.058a15.026,15.026,0,0,0,8.856-13.786V141.747c-20.87,8.281-38.39,11.536-53.66,11.536C173.521,153.236,158.443,149.263,143.556,145.337Zm0-45.953c-27.38-7.228-53.469-13.786-97.6,5.313v29.439c45.379-18,74-10.866,101.528-3.638,27.38,7.228,53.469,13.786,97.6-5.313V95.746c-20.87,8.281-38.39,11.536-53.66,11.536-17.9,0-32.981-3.973-47.868-7.9ZM148.1,39.118C172.9,46.586,194.727,53,245.084,29.5V14.754c0-12.015-12.829-18.238-23.647-12.733-82,41.789-75.248-31.784-175.484,13.5V88.231c45.379-17.951,74-10.866,101.528-3.638,27.381,7.18,53.469,13.738,97.6-5.313V46.3c-25.657,11.249-44.661,15.031-60.362,15.031S156.48,57.6,143.7,53.718c-1.915-.574-3.877-1.149-5.792-1.675V36.151c3.447.957,6.845,1.963,10.2,2.968ZM76.589,61.329a7.659,7.659,0,1,1,7.659-7.659A7.651,7.651,0,0,1,76.589,61.329Zm0-26.71a7.659,7.659,0,1,1,7.659-7.659A7.651,7.651,0,0,1,76.589,34.619Zm30.636,22.929a7.659,7.659,0,1,1,7.659-7.659A7.651,7.651,0,0,1,107.224,57.548Zm0-26.758a7.659,7.659,0,1,1,7.659-7.659A7.651,7.651,0,0,1,107.224,30.789Z" transform="translate(5.367 5.123)" fill="none" stroke="#4e6b73" stroke-width="6"/>
  </g>
</svg>
