<svg xmlns="http://www.w3.org/2000/svg" xmlns:xlink="http://www.w3.org/1999/xlink" width="256" height="256" viewBox="0 0 256 256">
  <defs>
    <clipPath id="clip-Positions_Filled">
      <rect width="256" height="256"/>
    </clipPath>
  </defs>
  <g id="Positions_Filled" clip-path="url(#clip-Positions_Filled)">
    <path id="Icon_awesome-network-wired" data-name="Icon awesome-network-wired" d="M243.211,100.324v-6.08a6.079,6.079,0,0,0-6.08-6.08h-106.4v-15.2h27.361A12.162,12.162,0,0,0,170.247,60.8V12.161A12.162,12.162,0,0,0,158.087,0H85.124A12.162,12.162,0,0,0,72.963,12.161V60.8A12.162,12.162,0,0,0,85.124,72.963h27.361v15.2H6.08A6.079,6.079,0,0,0,0,94.244v6.08a6.079,6.079,0,0,0,6.08,6.08H45.6v15.2H24.321a12.162,12.162,0,0,0-12.161,12.161v48.642a12.162,12.162,0,0,0,12.161,12.161h60.8a12.162,12.162,0,0,0,12.161-12.161V133.766a12.162,12.162,0,0,0-12.161-12.161H63.843V106.4H179.368v15.2H158.087a12.162,12.162,0,0,0-12.161,12.161v48.642a12.162,12.162,0,0,0,12.161,12.161h60.8a12.162,12.162,0,0,0,12.161-12.161V133.766a12.162,12.162,0,0,0-12.161-12.161H197.609V106.4H237.13A6.079,6.079,0,0,0,243.211,100.324ZM97.284,48.642V24.321h48.642V48.642ZM72.963,170.247H36.482V145.926H72.963Zm133.766,0H170.247V145.926h36.482Z" transform="translate(6.395 30.716)" fill="#1f2124" stroke="#1f2124" stroke-width="5"/>
  </g>
</svg>
