<svg xmlns="http://www.w3.org/2000/svg" xmlns:xlink="http://www.w3.org/1999/xlink" width="256" height="256" viewBox="0 0 256 256">
  <defs>
    <clipPath id="clip-Salaries_Full_green">
      <rect width="256" height="256"/>
    </clipPath>
  </defs>
  <g id="Salaries_Full_green" data-name="Salaries_Full green" clip-path="url(#clip-Salaries_Full_green)">
    <path id="Icon_ionic-logo-usd" data-name="Icon ionic-logo-usd" d="M179.475,150.806a49.423,49.423,0,0,0-7.832-14.761,56.28,56.28,0,0,0-13.106-12.23,64.883,64.883,0,0,0-18.376-8.434c-2.817-.746-7.771-1.92-14.3-3.515-4.664-1.136-9.036-2.3-13.965-3.487V50.48a40.764,40.764,0,0,1,12.008,5.712c7.82,4.951,12.723,13.42,14.16,24.921h37.884c-.358-9.858-2.547-17.941-6.57-25.2A61.6,61.6,0,0,0,151.457,35.67a82.376,82.376,0,0,0-26.494-12.3A94.639,94.639,0,0,0,111.9,20.534V2.25H76.851V20.414c-3.834.572-8.3,1.339-12.282,2.328A80.8,80.8,0,0,0,39.4,33.566,57.706,57.706,0,0,0,21.547,51.982C17.029,59.388,14.8,68.149,14.8,78.27a53.951,53.951,0,0,0,2.277,15.463,41.942,41.942,0,0,0,7.69,14.338A53.843,53.843,0,0,0,39.387,120.3a81.616,81.616,0,0,0,22.77,8.856c5.086,1.284,10.312,2.483,14.694,3.6v65.493a54.552,54.552,0,0,1-16.8-7.382A34.952,34.952,0,0,1,48.44,177.79c-2.617-5.054-3.874-11.241-4.057-17.813H6.75q.571,17.251,7.488,30.325a63.778,63.778,0,0,0,19.28,22.214A81.965,81.965,0,0,0,61.557,225.38a142.138,142.138,0,0,0,15.294,2.864V247.6H111.9V228.686a130.091,130.091,0,0,0,15.623-2.672,88.448,88.448,0,0,0,27.556-11.1,60.52,60.52,0,0,0,19.5-19.541C179.5,187.4,182,177.8,182,166.551A50.692,50.692,0,0,0,179.475,150.806ZM76.851,99.569c-6.572-2.05-13.1-4.977-17.553-8.789-4.721-4.028-6.941-9.6-6.941-16.728A20.621,20.621,0,0,1,56.193,61.4a26.352,26.352,0,0,1,9.245-8.013,49.545,49.545,0,0,1,11.413-3.909Zm65.118,82.024a25.143,25.143,0,0,1-7.833,9.7c-3.616,2.811-8.622,5.109-14.446,6.888a42.848,42.848,0,0,1-7.789,1.772v-58.66c5.477,1.437,9.956,2.92,14.418,4.453a32.616,32.616,0,0,1,12.343,7.731c3.716,3.656,5.646,9.327,5.646,17.01A27.267,27.267,0,0,1,141.969,181.593Z" transform="translate(33.625 2.937)" fill="#7fbe7a"/>
  </g>
</svg>
