<svg xmlns="http://www.w3.org/2000/svg" xmlns:xlink="http://www.w3.org/1999/xlink" width="256" height="256" viewBox="0 0 256 256">
  <defs>
    <clipPath id="clip-Salaries_Empty">
      <rect width="256" height="256"/>
    </clipPath>
  </defs>
  <g id="Salaries_Empty" clip-path="url(#clip-Salaries_Empty)">
    <path id="Icon_ionic-logo-usd" data-name="Icon ionic-logo-usd" d="M180.761,151.912a49.79,49.79,0,0,0-7.89-14.87,56.7,56.7,0,0,0-13.2-12.321,65.366,65.366,0,0,0-18.512-8.5c-2.838-.752-7.829-1.934-14.4-3.541-4.7-1.144-9.1-2.317-14.069-3.513V50.839a41.067,41.067,0,0,1,12.1,5.755c7.878,4.988,12.818,13.52,14.265,25.107h38.166c-.361-9.931-2.566-18.075-6.619-25.391a62.054,62.054,0,0,0-18.058-20.39A82.989,82.989,0,0,0,125.843,23.53a95.343,95.343,0,0,0-13.159-2.86V2.25H77.372v18.3C73.51,21.125,69.015,21.9,65,22.894A81.4,81.4,0,0,0,39.646,33.8,58.135,58.135,0,0,0,21.657,52.352c-4.552,7.461-6.793,16.287-6.793,26.483a54.352,54.352,0,0,0,2.294,15.578,42.254,42.254,0,0,0,7.747,14.445A54.244,54.244,0,0,0,39.63,121.18,82.223,82.223,0,0,0,62.569,130.1c5.124,1.294,10.389,2.5,14.8,3.628v65.98a54.958,54.958,0,0,1-16.926-7.437A35.212,35.212,0,0,1,48.75,179.1c-2.637-5.092-3.9-11.325-4.087-17.946H6.75q.575,17.38,7.543,30.55a64.252,64.252,0,0,0,19.423,22.38,82.575,82.575,0,0,0,28.248,12.961,143.19,143.19,0,0,0,15.408,2.886v19.5h35.311V230.371a131.062,131.062,0,0,0,15.739-2.692,89.106,89.106,0,0,0,27.761-11.187,60.971,60.971,0,0,0,19.648-19.687c4.955-8.023,7.473-17.7,7.473-29.032A51.07,51.07,0,0,0,180.761,151.912ZM77.372,100.293c-6.621-2.065-13.193-5.014-17.684-8.854C54.932,87.381,52.7,81.765,52.7,74.586A20.774,20.774,0,0,1,56.561,61.84a26.548,26.548,0,0,1,9.313-8.072,49.913,49.913,0,0,1,11.5-3.938Zm65.6,82.635a25.33,25.33,0,0,1-7.891,9.772c-3.643,2.832-8.687,5.147-14.553,6.939a43.167,43.167,0,0,1-7.847,1.785v-59.1c5.517,1.448,10.031,2.942,14.525,4.486a32.859,32.859,0,0,1,12.434,7.788c3.744,3.683,5.688,9.4,5.688,17.137A27.47,27.47,0,0,1,142.975,182.928Z" transform="translate(32.972 2.304)" fill="none" stroke="#4e6b73" stroke-width="10"/>
  </g>
</svg>
