<svg xmlns="http://www.w3.org/2000/svg" xmlns:xlink="http://www.w3.org/1999/xlink" width="256" height="256" viewBox="0 0 256 256">
  <defs>
    <clipPath id="clip-SMS_sent_Filled">
      <rect width="256" height="256"/>
    </clipPath>
  </defs>
  <g id="SMS_sent_Filled" data-name="SMS sent_Filled" clip-path="url(#clip-SMS_sent_Filled)">
    <path id="Icon_awesome-arrow-right" data-name="Icon awesome-arrow-right" d="M31.7,7.514,35.39,3.82a3.977,3.977,0,0,1,5.64,0L73.375,36.148a3.977,3.977,0,0,1,0,5.64L41.03,74.134a3.977,3.977,0,0,1-5.64,0L31.7,70.44a4,4,0,0,1,.067-5.707l20.049-19.1H3.993A3.984,3.984,0,0,1,0,41.639V36.315a3.984,3.984,0,0,1,3.993-3.993H51.812l-20.049-19.1A3.969,3.969,0,0,1,31.7,7.514Z" transform="translate(181.452 89.023)" fill="#7fbe7a"/>
    <path id="Icon_awesome-sms" data-name="Icon awesome-sms" d="M77.847,2.25C34.849,2.25,0,30.561,0,65.5c0,15.083,6.508,28.888,17.333,39.744C13.532,120.571.821,134.225.669,134.377a2.417,2.417,0,0,0-.456,2.646,2.382,2.382,0,0,0,2.22,1.46c20.161,0,35.274-9.67,42.755-15.63a92.74,92.74,0,0,0,32.659,5.9c43,0,77.847-28.311,77.847-63.251S120.845,2.25,77.847,2.25ZM38.984,84.962h-3.71a2.44,2.44,0,0,1-2.433-2.433V77.664a2.44,2.44,0,0,1,2.433-2.433h3.74c1.825,0,3.163-1.064,3.163-2.007a1.609,1.609,0,0,0-.639-1.156l-6.66-5.717a11.241,11.241,0,0,1-4.044-8.545c0-6.477,5.778-11.738,12.893-11.738h3.71A2.44,2.44,0,0,1,49.871,48.5v4.865A2.44,2.44,0,0,1,47.438,55.8H43.7c-1.825,0-3.163,1.064-3.163,2.007a1.609,1.609,0,0,0,.639,1.156l6.66,5.717a11.241,11.241,0,0,1,4.044,8.545C51.908,79.7,46.1,84.962,38.984,84.962ZM97.309,82.53a2.44,2.44,0,0,1-2.433,2.433H90.01a2.44,2.44,0,0,1-2.433-2.433V61.791L80.036,78.759a2.429,2.429,0,0,1-4.348,0L68.116,61.791V82.53a2.44,2.44,0,0,1-2.433,2.433H60.818a2.44,2.44,0,0,1-2.433-2.433V50.9a4.88,4.88,0,0,1,4.865-4.865h4.865a4.842,4.842,0,0,1,4.348,2.676L77.847,59.48l5.382-10.765a4.876,4.876,0,0,1,4.348-2.676h4.865A4.88,4.88,0,0,1,97.309,50.9ZM112,84.962h-3.74a2.44,2.44,0,0,1-2.433-2.433V77.664a2.44,2.44,0,0,1,2.433-2.433H112c1.825,0,3.163-1.064,3.163-2.007a1.609,1.609,0,0,0-.639-1.156l-6.66-5.717a11.241,11.241,0,0,1-4.044-8.545c0-6.477,5.778-11.738,12.893-11.738h3.71a2.44,2.44,0,0,1,2.433,2.433v4.865a2.44,2.44,0,0,1-2.433,2.433h-3.74c-1.825,0-3.163,1.064-3.163,2.007a1.609,1.609,0,0,0,.639,1.156l6.66,5.717a11.241,11.241,0,0,1,4.044,8.545C124.889,79.7,119.112,84.962,112,84.962Z" transform="translate(3 57.634)" fill="#7fbe7a"/>
  </g>
</svg>
