<svg xmlns="http://www.w3.org/2000/svg" xmlns:xlink="http://www.w3.org/1999/xlink" width="256" height="256" viewBox="0 0 256 256">
  <defs>
    <clipPath id="clip-Softwares_Empty">
      <rect width="256" height="256"/>
    </clipPath>
  </defs>
  <g id="Softwares_Empty" clip-path="url(#clip-Softwares_Empty)">
    <path id="Icon_simple-microsoftexcel" data-name="Icon simple-microsoftexcel" d="M241.61,29.9H159.135V45.167h24.312V69.315H159.135v7.694h24.312v24.178H159.135V109.1h24.312v22.865H159.135v9.161h24.312v22.917H159.135V173.2h24.312v23.05H159.135v16.813H241.61c1.3-.39,2.39-1.929,3.262-4.6a22.494,22.494,0,0,0,1.323-6.524V32.693c0-1.313-.451-2.1-1.323-2.38A11.286,11.286,0,0,0,241.61,29.9Zm-10.7,166.326H191.345V173.2h39.566v23.03Zm0-32.19H191.345V141.111h39.566Zm0-32.087H191.345V109.188h39.566v22.763Zm0-30.774H191.345V77.029h39.566v24.148Zm0-32H191.345v-24h39.566v24ZM0,26.1V216.909l145.255,25.122V.329L0,26.179ZM86.1,170.439q-.831-2.247-7.776-19.111c-4.606-11.243-7.386-17.788-8.2-19.655h-.256L54.286,168.757l-20.824-1.405,24.7-46.162L35.545,75.028,56.779,73.91l14.033,36.119h.277l15.849-37.76,21.942-1.385L82.753,120.841,109.68,171.8,86.1,170.419Z" transform="translate(4.902 6.82)" fill="none" stroke="#4e6b73" stroke-width="10"/>
  </g>
</svg>
