<svg xmlns="http://www.w3.org/2000/svg" xmlns:xlink="http://www.w3.org/1999/xlink" width="256" height="256" viewBox="0 0 256 256">
  <defs>
    <clipPath id="clip-Star_Empty">
      <rect width="256" height="256"/>
    </clipPath>
  </defs>
  <g id="Star_Empty" clip-path="url(#clip-Star_Empty)">
    <path id="Icon_ionic-ios-star" data-name="Icon ionic-ios-star" d="M231.772,80.06H153.436l-23.8-71.04a8.626,8.626,0,0,0-16.189,0l-23.8,71.04H10.771A8.546,8.546,0,0,0,2.25,88.58a6.262,6.262,0,0,0,.16,1.438c.107,1.864.959,3.941,3.568,6.018l64.383,45.372-24.71,71.839a8.545,8.545,0,0,0,2.929,9.586c1.544,1.118,2.982,2.077,4.793,2.077a10.44,10.44,0,0,0,5.325-1.917l62.839-44.786,62.839,44.786a9.979,9.979,0,0,0,5.325,1.917,7.651,7.651,0,0,0,4.74-2.077,8.441,8.441,0,0,0,2.929-9.586l-24.71-71.839,63.851-45.8,1.544-1.331c1.385-1.491,2.769-3.515,2.769-5.7C240.825,83.894,236.458,80.06,231.772,80.06Z" transform="translate(6.462 13.858)" fill="none" stroke="#4e6b73" stroke-width="10"/>
  </g>
</svg>
