<svg xmlns="http://www.w3.org/2000/svg" xmlns:xlink="http://www.w3.org/1999/xlink" width="256" height="256" viewBox="0 0 256 256">
  <defs>
    <clipPath id="clip-Status_Clients_Filled">
      <rect width="256" height="256"/>
    </clipPath>
  </defs>
  <g id="Status_Clients_Filled" clip-path="url(#clip-Status_Clients_Filled)">
    <g id="Soustraction_4" data-name="Soustraction 4" transform="translate(256.463 198.788) rotate(180)" fill="none">
      <path d="M64.984,140.788h0A70.5,70.5,0,0,1,0,70.5,70.17,70.17,0,0,1,12.04,31.083,70.706,70.706,0,0,1,43.058,5.54,70.06,70.06,0,0,1,70.5,0h115a70.733,70.733,0,0,1,17.963,2.309L64.984,140.788Z" stroke="none"/>
      <path d="M 61.31866836547852 130.3106689453125 L 181.6293334960938 10.00000762939453 L 70.50061798095703 10.00000762939453 C 62.32858657836914 10.00000762939453 54.40633773803711 11.59822177886963 46.95394134521484 14.75025749206543 C 43.37115859985352 16.26564979553223 39.91487121582031 18.14175796508789 36.680908203125 20.32657814025879 C 33.47526550292969 22.49222183227539 30.46040725708008 24.97975730895996 27.72012138366699 27.72000694274902 C 24.97976493835449 30.46032905578613 22.49222946166992 33.47518539428711 20.32651519775391 36.68082809448242 C 18.14179992675781 39.91461563110352 16.26569366455078 43.37089920043945 14.75030040740967 46.95365142822266 C 11.59822845458984 54.40586471557617 10.00001430511475 62.32789993286133 10.00001430511475 70.49968719482422 C 10.00001430511475 85.83536529541016 15.74655055999756 100.4618301391602 26.18101501464844 111.6847229003906 C 31.26294326782227 117.1506118774414 37.22290802001953 121.5816116333008 43.89530181884766 124.8546142578125 C 49.41776657104492 127.5635604858398 55.26106643676758 129.3919219970703 61.31866836547852 130.3106689453125 M 64.98361968994141 140.7878723144531 L 64.98394012451172 140.7875366210938 C 56.0703010559082 140.0978240966797 47.49330139160156 137.7578582763672 39.49129867553711 133.8326568603516 C 31.71722984313965 130.0192260742188 24.77494239807129 124.8585052490234 18.85740661621094 118.4938659667969 C 6.69705057144165 105.4147186279297 1.463971784687601e-05 88.37004089355469 1.463971784687601e-05 70.49968719482422 C 1.463971784687601e-05 60.98229217529297 1.864014625549316 51.74961471557617 5.54026460647583 43.05807876586914 C 7.307157516479492 38.88072204589844 9.494086265563965 34.85161590576172 12.0403356552124 31.08272171020508 C 14.5623722076416 27.3496150970459 17.45876502990723 23.8392219543457 20.64904975891113 20.64893531799316 C 23.83944320678711 17.45857810974121 27.34990692138672 14.56222152709961 31.08294296264648 12.04029369354248 C 34.85187149047852 9.494043350219727 38.88101577758789 7.307114601135254 43.05844497680664 5.540221691131592 C 51.7501220703125 1.864007592201233 60.98301315307617 7.585797902720515e-06 70.50061798095703 7.585797902720515e-06 L 185.4999084472656 7.585797902720515e-06 C 191.5869140625 7.585797902720515e-06 197.6304473876953 0.7768290042877197 203.4626159667969 2.308864831924438 L 64.98361968994141 140.7878723144531 Z" stroke="none" fill="#1f2124"/>
    </g>
    <text id="Off" transform="translate(139.742 163.773)" fill="#1f2124" font-size="60" font-family="HelveticaNeue-Bold, Helvetica Neue" font-weight="700"><tspan x="0" y="0">Off</tspan></text>
    <g id="Soustraction_3" data-name="Soustraction 3" transform="translate(6 13288)" fill="#1f2124">
      <path d="M 57.11045837402344 -13094.4111328125 C 49.64010620117188 -13095.2470703125 42.44553756713867 -13097.34375 35.69371795654297 -13100.6572265625 C 28.47095489501953 -13104.2001953125 22.01998519897461 -13108.9951171875 16.5195426940918 -13114.9111328125 C 5.222396373748779 -13127.0625 -0.999397873878479 -13142.8974609375 -0.999397873878479 -13159.498046875 C -0.999397873878479 -13168.34375 0.7317197322845459 -13176.9208984375 4.145896434783936 -13184.9921875 C 5.787014007568359 -13188.8740234375 7.818484306335449 -13192.6162109375 10.18404293060303 -13196.1181640625 C 12.52819061279297 -13199.587890625 15.22013187408447 -13202.8505859375 18.18524932861328 -13205.81640625 C 21.15133666992188 -13208.78125 24.41439628601074 -13211.4736328125 27.88292503356934 -13213.8173828125 C 31.3876895904541 -13216.1845703125 35.13045501708984 -13218.2158203125 39.00598526000977 -13219.8544921875 C 47.07921981811523 -13223.2685546875 55.65642547607422 -13225 64.49930572509766 -13225 L 179.5015411376953 -13225 C 182.0978393554688 -13225 184.6847229003906 -13224.8486328125 187.2462921142578 -13224.546875 L 57.11045837402344 -13094.4111328125 Z" stroke="none"/>
      <path d="M 55.3177375793457 -13099.689453125 L 175.6284332275391 -13220 L 64.49930572509766 -13220 C 56.32905960083008 -13220 48.40705871582031 -13218.4013671875 40.95348739624023 -13215.25 C 37.37520217895508 -13213.736328125 33.91873550415039 -13211.8603515625 30.6826286315918 -13209.6748046875 C 27.47709465026855 -13207.5078125 24.46134376525879 -13205.01953125 21.72091484069824 -13202.2802734375 C 18.98084449768066 -13199.5400390625 16.49327278137207 -13196.525390625 14.32709407806396 -13193.318359375 C 12.14248657226562 -13190.0849609375 10.26648616790771 -13186.62890625 8.750879287719727 -13183.044921875 C 5.598843574523926 -13175.5927734375 4.000629425048828 -13167.6708984375 4.000629425048828 -13159.498046875 C 4.000629425048828 -13144.1640625 9.747200965881348 -13129.5380859375 20.18109321594238 -13118.3154296875 C 25.26387977600098 -13112.849609375 31.22380828857422 -13108.4189453125 37.8961296081543 -13105.1455078125 C 43.41761779785156 -13102.4365234375 49.26049423217773 -13100.6083984375 55.3177375793457 -13099.689453125 M 58.98291397094727 -13089.212890625 L 58.98262786865234 -13089.212890625 L 58.98291397094727 -13089.212890625 Z M 58.98291397094727 -13089.212890625 C 50.06930923461914 -13089.90234375 41.49270248413086 -13092.2421875 33.4913444519043 -13096.16796875 C 25.71702194213867 -13099.9814453125 18.77495002746582 -13105.142578125 12.85791492462158 -13111.505859375 C 0.6975936889648438 -13124.5859375 -5.999370574951172 -13141.62890625 -5.999370574951172 -13159.498046875 C -5.999370574951172 -13169.0166015625 -4.13537073135376 -13178.2490234375 -0.4591206014156342 -13186.9404296875 C 1.307950854301453 -13191.119140625 3.494879484176636 -13195.1484375 6.040950775146484 -13198.9169921875 C 8.563022613525391 -13202.650390625 11.45937919616699 -13206.1611328125 14.64959335327148 -13209.3515625 C 17.84041595458984 -13212.541015625 21.35077285766602 -13215.4375 25.08327293395996 -13217.9599609375 C 28.85445022583008 -13220.5068359375 32.88348770141602 -13222.6943359375 37.05845260620117 -13224.4599609375 C 45.75052261352539 -13228.1357421875 54.98295211791992 -13230 64.49930572509766 -13230 L 179.5015258789062 -13230 C 185.5909118652344 -13230 191.6336975097656 -13229.2236328125 197.4620208740234 -13227.69140625 L 58.98291397094727 -13089.212890625 Z" stroke="none" fill="#1f2124"/>
    </g>
    <text id="On" transform="translate(30 133)" fill="#fff" font-size="60" font-family="HelveticaNeue-Bold, Helvetica Neue" font-weight="700"><tspan x="0" y="0">On</tspan></text>
  </g>
</svg>
