<svg xmlns="http://www.w3.org/2000/svg" xmlns:xlink="http://www.w3.org/1999/xlink" width="256" height="256" viewBox="0 0 256 256">
  <defs>
    <clipPath id="clip-Status_Clients_Empty">
      <rect width="256" height="256"/>
    </clipPath>
  </defs>
  <g id="Status_Clients_Empty" clip-path="url(#clip-Status_Clients_Empty)">
    <g id="Soustraction_3" data-name="Soustraction 3" transform="translate(6 13288)" fill="none">
      <path d="M58.983-13089.213a69.848,69.848,0,0,1-25.492-6.955,70.44,70.44,0,0,1-20.633-15.338A70.264,70.264,0,0,1-6-13159.5a70.057,70.057,0,0,1,5.54-27.442,70.475,70.475,0,0,1,6.5-11.977,71.009,71.009,0,0,1,8.609-10.435,71.144,71.144,0,0,1,10.434-8.608,70.548,70.548,0,0,1,11.975-6.5A70.068,70.068,0,0,1,64.5-13230h115a70.672,70.672,0,0,1,17.96,2.309L58.983-13089.213h0Z" stroke="none"/>
      <path d="M 55.3177375793457 -13099.689453125 L 175.6284332275391 -13220 L 64.49930572509766 -13220 C 56.32905960083008 -13220 48.40705871582031 -13218.4013671875 40.95348739624023 -13215.25 C 37.37520217895508 -13213.736328125 33.91873550415039 -13211.8603515625 30.6826286315918 -13209.6748046875 C 27.47709465026855 -13207.5078125 24.46134376525879 -13205.01953125 21.72091484069824 -13202.2802734375 C 18.98084449768066 -13199.5400390625 16.49327278137207 -13196.525390625 14.32709407806396 -13193.318359375 C 12.14248657226562 -13190.0849609375 10.26648616790771 -13186.62890625 8.750879287719727 -13183.044921875 C 5.598843574523926 -13175.5927734375 4.000629425048828 -13167.6708984375 4.000629425048828 -13159.498046875 C 4.000629425048828 -13144.1640625 9.747200965881348 -13129.5380859375 20.18109321594238 -13118.3154296875 C 25.26387977600098 -13112.849609375 31.22380828857422 -13108.4189453125 37.8961296081543 -13105.1455078125 C 43.41761779785156 -13102.4365234375 49.26049423217773 -13100.6083984375 55.3177375793457 -13099.689453125 M 58.98291397094727 -13089.212890625 L 58.98262786865234 -13089.212890625 L 58.98291397094727 -13089.212890625 Z M 58.98291397094727 -13089.212890625 C 50.06930923461914 -13089.90234375 41.49270248413086 -13092.2421875 33.4913444519043 -13096.16796875 C 25.71702194213867 -13099.9814453125 18.77495002746582 -13105.142578125 12.85791492462158 -13111.505859375 C 0.6975936889648438 -13124.5859375 -5.999370574951172 -13141.62890625 -5.999370574951172 -13159.498046875 C -5.999370574951172 -13169.0166015625 -4.13537073135376 -13178.2490234375 -0.4591206014156342 -13186.9404296875 C 1.307950854301453 -13191.119140625 3.494879484176636 -13195.1484375 6.040950775146484 -13198.9169921875 C 8.563022613525391 -13202.650390625 11.45937919616699 -13206.1611328125 14.64959335327148 -13209.3515625 C 17.84041595458984 -13212.541015625 21.35077285766602 -13215.4375 25.08327293395996 -13217.9599609375 C 28.85445022583008 -13220.5068359375 32.88348770141602 -13222.6943359375 37.05845260620117 -13224.4599609375 C 45.75052261352539 -13228.1357421875 54.98295211791992 -13230 64.49930572509766 -13230 L 179.5015258789062 -13230 C 185.5909118652344 -13230 191.6336975097656 -13229.2236328125 197.4620208740234 -13227.69140625 L 58.98291397094727 -13089.212890625 Z" stroke="none" fill="#4e6b73"/>
    </g>
    <g id="Soustraction_4" data-name="Soustraction 4" transform="translate(256.463 198.788) rotate(180)" fill="#4e6b73">
      <path d="M 63.11155319213867 135.5888824462891 C 55.64120101928711 134.7529907226562 48.44620895385742 132.6561279296875 41.69327163696289 129.3436431884766 C 34.47006607055664 125.8004379272461 28.01897621154785 121.0045547485352 22.51924133300781 115.0892868041992 C 11.22177124023438 102.9382629394531 5.000006198883057 87.10269927978516 5.000006198883057 70.49970245361328 C 5.000006198883057 61.65511322021484 6.731123924255371 53.07773208618164 10.14527130126953 45.00587844848633 C 11.7863883972168 41.12584686279297 13.8179178237915 37.38317108154297 16.18344688415527 33.88172912597656 C 18.52733039855957 30.41237640380859 21.21930122375488 27.14975929260254 24.18459510803223 24.18449592590332 C 27.14997673034668 21.21911239624023 30.41262435913086 18.52717208862305 33.88191986083984 16.18343544006348 C 37.38327026367188 13.81796550750732 41.12600708007812 11.78643608093262 45.00621032714844 10.14525985717773 C 53.07826995849609 6.731112480163574 61.65586090087891 4.99999475479126 70.50062561035156 4.99999475479126 L 185.4999237060547 4.99999475479126 C 188.0960388183594 4.99999475479126 190.6834259033203 5.15191650390625 193.2466278076172 5.453781127929688 L 63.11155319213867 135.5888824462891 Z" stroke="none"/>
      <path d="M 61.31866836547852 130.3106689453125 L 181.6293334960938 10.00000762939453 L 70.50061798095703 10.00000762939453 C 62.32858657836914 10.00000762939453 54.40633773803711 11.59822177886963 46.95394134521484 14.75025749206543 C 43.37115859985352 16.26564979553223 39.91487121582031 18.14175796508789 36.680908203125 20.32657814025879 C 33.47526550292969 22.49222183227539 30.46040725708008 24.97975730895996 27.72012138366699 27.72000694274902 C 24.97976493835449 30.46032905578613 22.49222946166992 33.47518539428711 20.32651519775391 36.68082809448242 C 18.14179992675781 39.91461563110352 16.26569366455078 43.37089920043945 14.75030040740967 46.95365142822266 C 11.59822845458984 54.40586471557617 10.00001430511475 62.32789993286133 10.00001430511475 70.49968719482422 C 10.00001430511475 85.83536529541016 15.74655055999756 100.4618301391602 26.18101501464844 111.6847229003906 C 31.26294326782227 117.1506118774414 37.22290802001953 121.5816116333008 43.89530181884766 124.8546142578125 C 49.41776657104492 127.5635604858398 55.26106643676758 129.3919219970703 61.31866836547852 130.3106689453125 M 64.98361968994141 140.7878723144531 L 64.98394012451172 140.7875366210938 C 56.0703010559082 140.0978240966797 47.49330139160156 137.7578582763672 39.49129867553711 133.8326568603516 C 31.71722984313965 130.0192260742188 24.77494239807129 124.8585052490234 18.85740661621094 118.4938659667969 C 6.69705057144165 105.4147186279297 1.463971784687601e-05 88.37004089355469 1.463971784687601e-05 70.49968719482422 C 1.463971784687601e-05 60.98229217529297 1.864014625549316 51.74961471557617 5.54026460647583 43.05807876586914 C 7.307157516479492 38.88072204589844 9.494086265563965 34.85161590576172 12.0403356552124 31.08272171020508 C 14.5623722076416 27.3496150970459 17.45876502990723 23.8392219543457 20.64904975891113 20.64893531799316 C 23.83944320678711 17.45857810974121 27.34990692138672 14.56222152709961 31.08294296264648 12.04029369354248 C 34.85187149047852 9.494043350219727 38.88101577758789 7.307114601135254 43.05844497680664 5.540221691131592 C 51.7501220703125 1.864007592201233 60.98301315307617 7.585797902720515e-06 70.50061798095703 7.585797902720515e-06 L 185.4999084472656 7.585797902720515e-06 C 191.5869140625 7.585797902720515e-06 197.6304473876953 0.7768290042877197 203.4626159667969 2.308864831924438 L 64.98361968994141 140.7878723144531 Z" stroke="none" fill="#4e6b73"/>
    </g>
    <text id="On" transform="translate(30 133)" fill="#4e6b73" font-size="60" font-family="HelveticaNeue-Bold, Helvetica Neue" font-weight="700"><tspan x="0" y="0">On</tspan></text>
    <text id="Off" transform="translate(139.742 163.773)" fill="#fff" font-size="60" font-family="HelveticaNeue-Bold, Helvetica Neue" font-weight="700"><tspan x="0" y="0">Off</tspan></text>
  </g>
</svg>
